<?xml version="1.0" standalone="no"?><!DOCTYPE svg PUBLIC "-//W3C//DTD SVG 1.1//EN" "http://www.w3.org/Graphics/SVG/1.1/DTD/svg11.dtd"><svg t="1553481803938" class="icon" style="" viewBox="0 0 1024 1024" version="1.1" xmlns="http://www.w3.org/2000/svg" p-id="9384" xmlns:xlink="http://www.w3.org/1999/xlink" width="200" height="200"><defs><style type="text/css"></style></defs><path d="M894.968 474.697H719.387v64.553l192.609 321.284-92.557 51.464-153.49-256.03L573.7 809.842l-60.78 101.385-0.462 0.771-0.462-0.257-0.462 0.257-0.463-0.77-60.78-101.386-92.247-153.874-153.49 256.03-92.557-51.464 192.61-321.284v-64.553H129.025V371.77h765.942v102.927zM411.483 539.25l100.514 167.665L612.51 539.25v-64.553H411.483v64.553zM358.045 112c59.689 0 108.148 46.669 108.148 104.153 0 57.483-48.46 104.153-108.148 104.153-59.689 0-108.148-46.67-108.148-104.153 0-57.484 48.46-104.153 108.148-104.153z m307.904 0c59.689 0 108.148 46.669 108.148 104.153 0 57.483-48.46 104.153-108.148 104.153-59.689 0-108.148-46.67-108.148-104.153C557.8 158.669 606.26 112 665.949 112z" fill="#10AEFF" p-id="9385"></path></svg>