<?xml version="1.0" standalone="no"?><!DOCTYPE svg PUBLIC "-//W3C//DTD SVG 1.1//EN" "http://www.w3.org/Graphics/SVG/1.1/DTD/svg11.dtd"><svg t="1553302426766" class="icon" style="" viewBox="0 0 1024 1024" version="1.1" xmlns="http://www.w3.org/2000/svg" p-id="2566" xmlns:xlink="http://www.w3.org/1999/xlink" width="200" height="200"><defs><style type="text/css"></style></defs><path d="M539.882057 540.281905c-9.758883 0-17.669689 6.551975-17.669689 14.633447v111.684267c0 8.081473 7.910806 14.633448 17.669689 14.633448 9.758883 0 17.669689-6.551975 17.669689-14.633448v-111.682641c0-8.081473-7.910806-14.635073-17.669689-14.635073z" fill="#e6e6e6" p-id="2567"></path><path d="M762.891378 390.571479h-38.333359v-59.418006c0-50.024838-18.516521-96.5632-52.137854-131.041117-34.271492-35.142705-81.341359-54.499556-132.539733-54.499556-51.198375 0-98.268241 19.355225-132.539734 54.499556-33.621333 34.477917-52.136229 81.014654-52.136228 131.041117v59.418006h-31.929295c-35.643327 0-64.640406 26.713397-64.640407 59.548038v321.277562c0 32.834641 28.997079 59.548038 64.640407 59.548038h439.614577c35.643327 0 64.640406-26.713397 64.640407-59.548038v-321.275936c0.003251-32.834641-28.995454-59.549663-64.638781-59.549664z m-372.929422-59.416381c0-85.960737 64.45186-150.783187 149.920101-150.783187 85.468241 0 149.920102 64.822451 149.920102 150.783187v59.418007h-299.840203v-59.418007z m402.813968 440.241981c0 13.671213-13.407898 24.790552-29.884546 24.790553h-439.614578c-16.478273 0-29.884546-11.120965-29.884546-24.792178v-321.275937c0-13.671213 13.406273-24.793803 29.884546-24.793803h439.614578c16.478273 0 29.884546 11.12259 29.884546 24.793803v321.277562z" fill="#e6e6e6" p-id="2568"></path></svg>