<?xml version="1.0" standalone="no"?><!DOCTYPE svg PUBLIC "-//W3C//DTD SVG 1.1//EN" "http://www.w3.org/Graphics/SVG/1.1/DTD/svg11.dtd"><svg t="1553657658972" class="icon" style="" viewBox="0 0 1024 1024" version="1.1" xmlns="http://www.w3.org/2000/svg" p-id="5774" xmlns:xlink="http://www.w3.org/1999/xlink" width="200" height="200"><defs><style type="text/css"></style></defs><path d="M979.157 315.94c-25.734-60.895-62.169-114.91-109.05-162.047-47.136-46.881-101.152-83.316-162.046-109.05C644.873 17.835 578.628 4.586 509.579 4.586s-135.293 13.25-198.226 40.002c-61.15 25.734-115.165 62.169-162.046 109.05C102.17 200.774 65.736 254.79 40.002 315.94 13.249 378.872 0 445.118 0 514.166s13.25 135.293 40.002 198.48a501.6 501.6 0 0 0 109.305 161.792c46.881 47.137 100.897 83.571 162.046 109.305C374.541 1010.496 440.531 1024 509.58 1024s135.294-13.504 198.482-40.257c60.894-25.734 114.91-62.168 162.046-109.305 46.881-46.88 83.316-100.896 109.05-161.791 26.753-63.188 40.002-129.178 40.002-198.481s-13.25-135.294-40.002-198.227m-36.18 198.227c0 59.11-11.466 115.42-34.142 168.67-21.912 51.978-52.741 97.84-92.743 137.842-40.002 40.002-85.865 70.831-137.842 92.998-54.015 22.676-110.324 34.142-168.67 34.142-58.857 0-115.165-11.466-168.671-34.142-51.977-21.912-97.84-52.996-137.842-92.998-39.747-39.747-70.831-85.864-92.998-137.841a429.198 429.198 0 0 1-34.142-168.671c0-59.112 11.211-115.42 34.142-168.926 21.912-51.977 52.996-97.84 92.998-137.841 39.748-39.747 85.865-70.832 137.842-92.998a430.116 430.116 0 0 1 168.67-34.142c59.112 0 115.42 11.21 168.926 34.142 51.977 21.912 97.84 52.996 137.587 92.998 40.002 40.002 70.831 85.864 92.998 137.841 22.676 53.76 33.887 110.07 33.887 168.926M317.468 640.54c-4.841 7.899-5.86 16.562-3.057 25.734 12.994 41.786 37.199 75.928 72.615 102.426 36.18 27.007 77.2 40.511 122.553 40.511 45.608 0 86.374-13.504 122.554-40.511 35.67-26.498 59.876-60.64 72.615-102.426 2.803-9.172 1.784-17.835-2.802-25.734-4.841-7.898-11.211-11.975-19.62-11.975h-345.24c-8.407 0-15.032 4.077-19.618 11.975m42.55-259.12c-6.37-10.957-15.033-19.874-26.243-26.244-10.956-6.37-22.932-9.682-35.671-9.682s-24.715 3.312-35.925 9.682a69.466 69.466 0 0 0-25.989 26.243c-6.37 11.211-9.682 23.186-9.682 35.926s3.312 24.714 9.682 35.67a73.278 73.278 0 0 0 25.989 26.244c11.21 6.37 23.186 9.682 35.925 9.682s24.715-3.313 35.67-9.682c10.957-6.37 19.874-15.033 26.244-26.244 6.37-10.956 9.682-22.93 9.682-35.67s-3.312-24.715-9.682-35.926m361.037-35.67c-19.619 0-36.435 7.134-50.448 21.147-14.014 14.014-20.893 30.83-20.893 50.703 0 19.62 6.88 36.435 20.893 50.449 14.013 14.013 30.83 20.893 50.448 20.893 19.619 0 36.435-6.88 50.448-20.893 14.014-14.014 21.148-30.83 21.148-50.449s-7.134-36.69-21.148-50.703c-13.758-14.268-30.574-21.147-50.448-21.147z" p-id="5775" fill="#2c2c2c"></path></svg>