<?xml version="1.0" standalone="no"?><!DOCTYPE svg PUBLIC "-//W3C//DTD SVG 1.1//EN" "http://www.w3.org/Graphics/SVG/1.1/DTD/svg11.dtd"><svg t="1553481752941" class="icon" style="" viewBox="0 0 1029 1024" version="1.1" xmlns="http://www.w3.org/2000/svg" p-id="8559" xmlns:xlink="http://www.w3.org/1999/xlink" width="200.9765625" height="200"><defs><style type="text/css"></style></defs><path d="M974.70646 680.391111l13.653334-2.275555c29.582222-6.826667 45.511111-36.408889 38.684444-65.991112l-2.275555-4.551111c-6.826667-29.582222-36.408889-45.511111-65.991111-38.684444l-13.653334 2.275555-2.275555-11.377777 15.928889-4.551111c29.582222-6.826667 45.511111-36.408889 38.684444-65.991112l-2.275556-6.826666c-6.826667-29.582222-36.408889-45.511111-65.991111-38.684445l-13.653333 4.551111-2.275556-11.377777 29.582223-6.826667c29.582222-6.826667 45.511111-36.408889 38.684444-65.991111l-2.275555-11.377778c-6.826667-29.582222-36.408889-45.511111-65.991112-38.684444l-31.857777 4.551111-4.551111-15.928889 6.826666-2.275556c29.582222-6.826667 45.511111-36.408889 38.684445-65.991111V227.555556c-6.826667-29.582222-36.408889-45.511111-65.991111-38.684445H847.275349l-36.408889-141.084444c-9.102222-34.133333-45.511111-54.613333-79.644444-45.511111L296.590905 111.502222c-34.133333 9.102222-56.888889 45.511111-47.786667 79.644445l11.377778 47.786666c-38.684444 27.306667-84.195556 68.266667-81.92 97.848889 4.551111 43.235556 0 106.951111 11.377778 131.982222 11.377778 27.306667 56.888889 100.124444 27.306666 136.533334C187.364238 641.706667 23.524238 780.515556 14.422016 785.066667c-9.102222 4.551111-27.306667 31.857778 0 59.164444 27.306667 27.306667 159.288889 131.982222 175.217778 147.911111 18.204444 15.928889 70.542222 40.96 116.053333-9.102222 27.306667-29.582222 77.368889-84.195556 111.502222-122.88l29.582223 116.053333c9.102222 34.133333 45.511111 54.613333 79.644444 45.511111L961.053127 912.497778c34.133333-9.102222 56.888889-45.511111 47.786667-79.644445l-34.133334-152.462222z m-84.195555 106.951111l-354.986667 88.746667c-29.582222 6.826667-56.888889-9.102222-65.991111-38.684445l-109.226667-430.08H483.18646s104.675556-4.551111 72.817778-61.44c-27.306667-47.786667-170.666667-127.431111-227.555555-136.533333 6.826667-13.653333 18.204444-22.755556 34.133333-27.306667l354.986667-88.746666c29.582222-6.826667 56.888889 9.102222 65.991111 38.684444l18.204444 68.266667-65.991111 18.204444c-29.582222 6.826667-45.511111 36.408889-38.684444 65.991111l2.275555 9.102223c6.826667 29.582222 36.408889 45.511111 65.991111 38.684444l65.991111-18.204444 4.551112 15.928889-93.297778 22.755555c-29.582222 6.826667-45.511111 36.408889-38.684445 65.991111l2.275556 11.377778c6.826667 29.582222 36.408889 45.511111 65.991111 38.684444l91.022222-22.755555 2.275556 11.377778-59.164445 15.928889c-29.582222 6.826667-45.511111 36.408889-38.684444 65.991111l2.275555 6.826666c6.826667 29.582222 36.408889 45.511111 65.991112 38.684445L892.78646 568.888889l2.275556 11.377778-40.96 11.377777c-29.582222 6.826667-45.511111 36.408889-38.684444 65.991112l2.275555 4.551111c6.826667 29.582222 36.408889 45.511111 65.991111 38.684444l40.96-11.377778 6.826667 29.582223c6.826667 31.857778-11.377778 61.44-40.96 68.266666z" p-id="8560" fill="#1296db"></path></svg>