<?xml version="1.0" standalone="no"?><!DOCTYPE svg PUBLIC "-//W3C//DTD SVG 1.1//EN" "http://www.w3.org/Graphics/SVG/1.1/DTD/svg11.dtd"><svg t="1553481914653" class="icon" style="" viewBox="0 0 1024 1024" version="1.1" xmlns="http://www.w3.org/2000/svg" p-id="11015" xmlns:xlink="http://www.w3.org/1999/xlink" width="200" height="200"><defs><style type="text/css"></style></defs><path d="M681.088 422.4h-52.864a32 32 0 1 0 0 64h52.864v47.168c0 19.008 15.424 34.432 34.496 34.432h1.472a34.432 34.432 0 0 0 34.432-34.432V486.4h53.952a32 32 0 0 0 0-64h-53.952v-43.968a34.432 34.432 0 0 0-34.432-34.432h-1.472a34.432 34.432 0 0 0-34.496 34.432V422.4z m29.76-230.4c163.648 0 215.168 188.16 244.352 450.752 13.44 139.392 2.24 255.552-78.464 253.184-116.608 0-121.088-109.184-204.032-160.256-31.36-16.256-100.864-23.232-159.168-25.6-58.24 2.368-127.744 9.344-159.104 25.6-82.944 51.072-87.424 160.256-204.032 160.256-82.944 0-96.384-116.16-80.64-255.552C96.64 380.16 148.096 192 311.744 192c82.944 0 123.328 30.592 199.488 37.568C585.28 222.592 627.904 192 710.848 192zM325.056 579.2a123.2 123.2 0 1 0 0-246.4 123.2 123.2 0 0 0 0 246.4z" fill="#d81e06" p-id="11016"></path><path d="M325.056 515.2a59.2 59.2 0 1 0 0-118.4 59.2 59.2 0 0 0 0 118.4z" fill="#d81e06" p-id="11017"></path></svg>