<?xml version="1.0" standalone="no"?><!DOCTYPE svg PUBLIC "-//W3C//DTD SVG 1.1//EN" "http://www.w3.org/Graphics/SVG/1.1/DTD/svg11.dtd"><svg t="1553597592072" class="icon" style="" viewBox="0 0 1024 1024" version="1.1" xmlns="http://www.w3.org/2000/svg" p-id="2592" xmlns:xlink="http://www.w3.org/1999/xlink" width="200" height="200"><defs><style type="text/css"></style></defs><path d="M171.582 785.898 171.582 467.969c0-120.337 97.867-218.239 218.164-218.239l323.002 0c120.3 0 218.169 97.905 218.169 218.244 0 120.335-97.87 218.234-218.169 218.234L315.564 686.208 171.582 785.898zM389.747 275.329c-106.18 0-192.565 86.417-192.565 192.639l0 269.069 110.382-76.43 405.184 0c106.185 0 192.57-86.415 192.57-192.634 0-106.225-86.385-192.645-192.57-192.645L389.747 275.328zM723.918 547.304c-10.075 0-19.605-1.69-28.32-5.025-8.845-3.38-16.64-8.285-23.175-14.57-6.555-6.29-11.74-13.935-15.4-22.712-3.63-8.675-5.475-18.327-5.475-28.677 0-10.465 1.855-20.137 5.505-28.75 3.68-8.69 8.905-16.227 15.52-22.392 6.525-6.082 14.32-10.825 23.16-14.09 8.665-3.195 18.145-4.812 28.185-4.812 10.035 0 19.53 1.615 28.23 4.8 8.89 3.255 16.725 8 23.28 14.1 6.635 6.202 11.845 13.732 15.52 22.407 3.65 8.632 5.5 18.3 5.5 28.737 0 10.32-1.845 19.97-5.475 28.68-3.645 8.74-8.82 16.38-15.385 22.705-6.565 6.305-14.395 11.205-23.295 14.585C743.533 545.619 733.988 547.304 723.918 547.304zM723.918 431.874c-7.01 0-13.51 1.087-19.325 3.23-5.71 2.11-10.475 4.99-14.565 8.802-4.025 3.75-7.1 8.212-9.4 13.652-2.31 5.44-3.48 11.75-3.48 18.76 0 6.938 1.175 13.265 3.495 18.807 2.34 5.605 5.45 10.217 9.515 14.122 4.12 3.962 8.885 6.94 14.58 9.12 11.595 4.435 26.785 4.43 38.465-0.01 5.74-2.18 10.53-5.16 14.64-9.107 4.065-3.917 7.18-8.535 9.5-14.105 2.325-5.577 3.505-11.907 3.505-18.827 0-6.992-1.17-13.305-3.48-18.765-2.295-5.42-5.37-9.89-9.4-13.66-4.025-3.742-8.95-6.705-14.62-8.78C737.478 432.964 730.938 431.874 723.918 431.874zM554.339 547.304c-10.07 0-19.595-1.69-28.31-5.025-8.845-3.38-16.645-8.28-23.18-14.57-6.55-6.295-11.732-13.937-15.395-22.71-3.63-8.685-5.473-18.337-5.473-28.68 0-10.46 1.85-20.13 5.5-28.742 3.682-8.695 8.902-16.23 15.515-22.395 6.533-6.09 14.327-10.832 23.172-14.095 8.66-3.195 18.14-4.812 28.17-4.812 10.035 0 19.53 1.615 28.23 4.8 8.89 3.255 16.725 8 23.28 14.1 6.615 6.17 11.83 13.7 15.52 22.392 3.655 8.665 5.5 18.327 5.5 28.752 0 10.307-1.84 19.952-5.46 28.665-3.675 8.79-8.855 16.43-15.41 22.725-6.555 6.3-14.385 11.2-23.285 14.58C573.954 545.619 564.409 547.304 554.339 547.304zM554.339 431.874c-7 0-13.5 1.087-19.315 3.23-5.71 2.11-10.48 4.99-14.57 8.802-4.02 3.747-7.097 8.215-9.402 13.655-2.302 5.438-3.47 11.747-3.47 18.757 0 6.935 1.175 13.265 3.495 18.812 2.335 5.597 5.447 10.215 9.512 14.12 4.115 3.96 8.88 6.937 14.58 9.117 11.6 4.44 26.785 4.425 38.455-0.01 5.74-2.18 10.53-5.16 14.64-9.107 4.06-3.908 7.175-8.527 9.515-14.12 2.315-5.56 3.49-11.897 3.49-18.812 0-6.99-1.17-13.307-3.475-18.777-2.3-5.417-5.38-9.887-9.4-13.64-4.03-3.75-8.955-6.712-14.625-8.787C567.899 432.964 561.359 431.874 554.339 431.874zM387.724 547.304c-10.07 0-19.597-1.69-28.317-5.025-8.845-3.38-16.642-8.285-23.177-14.57-6.55-6.295-11.732-13.935-15.395-22.71-3.63-8.685-5.473-18.337-5.473-28.68 0-10.46 1.85-20.13 5.5-28.742 3.682-8.697 8.902-16.23 15.515-22.395 6.53-6.087 14.325-10.83 23.167-14.095 8.667-3.195 18.145-4.812 28.18-4.812 10.032 0 19.53 1.615 28.23 4.8 8.89 3.255 16.722 8 23.28 14.1 6.622 6.185 11.84 13.717 15.52 22.4 3.652 8.65 5.5 18.315 5.5 28.745 0 10.315-1.84 19.96-5.47 28.672-3.658 8.765-8.837 16.402-15.395 22.717-6.557 6.3-14.392 11.2-23.29 14.58C407.339 545.619 397.792 547.304 387.724 547.304zM387.724 431.874c-7.005 0-13.505 1.087-19.322 3.23-5.71 2.11-10.477 4.99-14.57 8.802-4.02 3.747-7.095 8.215-9.4 13.655-2.303 5.438-3.47 11.747-3.47 18.757 0 6.935 1.175 13.265 3.495 18.812 2.335 5.597 5.447 10.215 9.515 14.12 4.113 3.96 8.878 6.937 14.575 9.117 11.597 4.425 26.787 4.425 38.462-0.01 5.74-2.18 10.53-5.16 14.637-9.107 4.068-3.913 7.18-8.532 9.51-14.112 2.32-5.568 3.497-11.902 3.497-18.82 0-6.99-1.17-13.307-3.478-18.772-2.297-5.417-5.375-9.887-9.4-13.647-4.027-3.747-8.952-6.71-14.622-8.785C401.281 432.964 394.744 431.874 387.724 431.874z" p-id="2593" fill="#1296db"></path></svg>