<?xml version="1.0" standalone="no"?><!DOCTYPE svg PUBLIC "-//W3C//DTD SVG 1.1//EN" "http://www.w3.org/Graphics/SVG/1.1/DTD/svg11.dtd"><svg t="1553657568886" class="icon" style="" viewBox="0 0 1024 1024" version="1.1" xmlns="http://www.w3.org/2000/svg" p-id="4152" xmlns:xlink="http://www.w3.org/1999/xlink" width="200" height="200"><defs><style type="text/css"></style></defs><path d="M593.024 234.496l-46.176 46.24 0.288 0.224c127.552 127.648 127.552 334.688 0 462.336l46.112 46.24c153.056-153.184 153.056-401.632 0-554.816l-0.224-0.224z m-92.128 92.704c-0.032-0.096-0.128-0.16-0.224-0.224l-46.176 46.24c0.032 0.096 0.128 0.16 0.224 0.256a196.384 196.384 0 0 1 0 277.408l46.144 46.24a261.568 261.568 0 0 0 0.032-369.888z m-92.576 92.224l-92.384 92.448 92.64 92.704a130.88 130.88 0 0 0 0-184.928l-0.224-0.224zM512 0C229.696 0 0 229.696 0 512s229.696 512 512 512c282.272 0 512-229.728 512-512S794.272 0 512 0z m0 981.28C253.216 981.28 42.688 770.752 42.688 512S253.216 42.688 512 42.688 981.28 253.216 981.28 512 770.752 981.28 512 981.28z" p-id="4153" fill="#2c2c2c"></path></svg>