<?xml version="1.0" standalone="no"?><!DOCTYPE svg PUBLIC "-//W3C//DTD SVG 1.1//EN" "http://www.w3.org/Graphics/SVG/1.1/DTD/svg11.dtd"><svg t="1553481855801" class="icon" style="" viewBox="0 0 1024 1024" version="1.1" xmlns="http://www.w3.org/2000/svg" p-id="10164" xmlns:xlink="http://www.w3.org/1999/xlink" width="200" height="200"><defs><style type="text/css"></style></defs><path d="M826.6 102.5H195.8c-25.2 0-45.6 20.4-45.6 45.6v722.6c0 25.2 20.4 45.6 45.6 45.6h630.8c25.2 0 45.6-20.4 45.6-45.6V148.1c0-25.2-20.4-45.6-45.6-45.6z" fill="#F86161" p-id="10165"></path><path d="M715.7 215.1c-26.4 0-47.9 21.4-47.9 47.9 0 18.1 10.1 33.9 24.9 42v-1.2c0 101.7-82.8 184.5-184.5 184.5s-184.5-82.8-184.5-184.5v4c18.1-6.8 30.9-24.3 30.9-44.8 0-26.4-21.4-47.9-47.9-47.9-26.4 0-47.9 21.4-47.9 47.9 0 18.1 10.1 33.9 24.9 42v-1.2c0 59.7 23.4 116 65.9 158.5s98.8 65.9 158.5 65.9 116-23.4 158.5-65.9c42.5-42.5 65.9-98.8 65.9-158.5v4c18.1-6.8 30.9-24.3 30.9-44.8 0.1-26.4-21.3-47.9-47.7-47.9z" fill="#FFFFFF" p-id="10166"></path></svg>