<?xml version="1.0" standalone="no"?><!DOCTYPE svg PUBLIC "-//W3C//DTD SVG 1.1//EN" "http://www.w3.org/Graphics/SVG/1.1/DTD/svg11.dtd"><svg t="1553302577774" class="icon" style="" viewBox="0 0 1027 1024" version="1.1" xmlns="http://www.w3.org/2000/svg" p-id="3402" xmlns:xlink="http://www.w3.org/1999/xlink" width="200.5859375" height="200"><defs><style type="text/css"></style></defs><path d="M93.44 716.16h233.6V343.04H93.44v373.12z m887.04-279.68V343.04c0-51.2-42.24-93.44-93.44-93.44h-793.6C42.24 249.6 0 291.84 0 343.04v373.12c0 51.2 42.24 93.44 93.44 93.44h793.6c51.2 0 93.44-42.24 93.44-93.44V622.72c25.6 0 46.72-21.12 46.72-46.72V483.2c0-25.6-21.12-46.72-46.72-46.72z m-46.72 279.68c0 25.6-21.12 46.72-46.72 46.72h-793.6c-25.6 0-46.72-21.12-46.72-46.72V343.04c0-25.6 21.12-46.72 46.72-46.72h793.6c25.6 0 46.72 21.12 46.72 46.72v373.12z" fill="#dbdbdb" p-id="3403"></path></svg>