<?xml version="1.0" standalone="no"?><!DOCTYPE svg PUBLIC "-//W3C//DTD SVG 1.1//EN" "http://www.w3.org/Graphics/SVG/1.1/DTD/svg11.dtd"><svg t="1553672552469" class="icon" style="" viewBox="0 0 1024 1024" version="1.1" xmlns="http://www.w3.org/2000/svg" p-id="6071" xmlns:xlink="http://www.w3.org/1999/xlink" width="200" height="200"><defs><style type="text/css"></style></defs><path d="M955.592093 163.774353l0 219.732421c0 26.556395-10.233062 51.543054-28.87942 70.314727-18.645358 18.83423-43.506303 29.193207-69.937382 29.193207L638.925592 483.014708c-54.493853 0-98.816802-44.637736-98.816802-99.570691L540.10879 163.711795c0-54.873596 44.322749-99.507734 98.816802-99.507734l217.786741 0c54.55681 0.062558 98.87956 44.700093 98.87956 99.567693L955.591893 163.774353zM382.089927 535.624838 164.240629 535.624838c-54.493453 0-98.816802 44.637536-98.816802 99.507334l0 219.732421c0 54.870598 44.323349 99.570091 98.816802 99.570091l217.849298 0c26.43108 0 51.229067-10.357977 69.94038-29.193007 18.645758-18.771273 28.87942-43.758132 28.87942-70.314127L480.909727 635.19493C480.909727 580.262374 436.586378 535.624838 382.089927 535.624838L382.089927 535.624838zM856.084759 538.951583 636.352337 538.951583c-54.870598 0-99.570291 44.323948-99.570291 98.817802l0 217.848699c0 26.43108 10.358977 51.229067 29.192208 69.937382 18.772272 18.646358 43.759131 28.87942 70.315126 28.87942l219.732421 0c54.870598 0 99.507334-44.322749 99.507334-98.816602L955.529135 637.831142C955.592093 583.275331 910.954557 538.951583 856.084759 538.951583L856.084759 538.951583zM384.726539 64.266619 164.994118 64.266619c-54.870198 0-99.570291 44.323349-99.570291 98.817202l0 217.849298c0 26.43048 10.358977 51.228667 29.193207 69.937382 18.771273 18.645758 43.758132 28.87942 70.314127 28.87942l219.733021 0c54.872596 0 99.507734-44.320751 99.507734-98.814204L484.171915 163.023862c0.062558-54.430896-44.575178-98.754245-99.445376-98.754245L384.726539 64.266619z" p-id="6072"></path></svg>