<?xml version="1.0" standalone="no"?><!DOCTYPE svg PUBLIC "-//W3C//DTD SVG 1.1//EN" "http://www.w3.org/Graphics/SVG/1.1/DTD/svg11.dtd"><svg t="1553670368557" class="icon" style="" viewBox="0 0 1792 1024" version="1.1" xmlns="http://www.w3.org/2000/svg" p-id="5607" xmlns:xlink="http://www.w3.org/1999/xlink" width="350" height="200"><defs><style type="text/css"></style></defs><path d="M806.4 102.4l-256 0C512 102.4 486.4 128 486.4 166.4l0 256c0 38.4 25.6 64 64 64l256 0c38.4 0 64-25.6 64-64l0-256C870.4 128 844.8 102.4 806.4 102.4zM832 422.4c0 12.8-12.8 25.6-25.6 25.6l-256 0c-12.8 0-25.6-12.8-25.6-25.6l0-256c0-12.8 12.8-12.8 25.6-12.8l256 0c12.8 0 25.6 12.8 25.6 25.6L832 422.4z" p-id="5608" fill="#2c2c2c"></path><path d="M1241.6 102.4l-256 0C947.2 102.4 921.6 128 921.6 166.4l0 256c0 38.4 25.6 64 64 64l256 0c38.4 0 64-25.6 64-64l0-256C1305.6 128 1280 102.4 1241.6 102.4zM1267.2 422.4c0 12.8-12.8 25.6-25.6 25.6l-256 0c-12.8 0-25.6-12.8-25.6-25.6l0-256c0-12.8 12.8-25.6 25.6-25.6l256 0c12.8 0 25.6 12.8 25.6 25.6L1267.2 422.4z" p-id="5609" fill="#2c2c2c"></path><path d="M806.4 537.6l-256 0C512 537.6 486.4 563.2 486.4 601.6l0 256C486.4 896 512 921.6 550.4 921.6l256 0c38.4 0 64-25.6 64-64l0-256C870.4 563.2 844.8 537.6 806.4 537.6zM832 857.6c0 12.8-12.8 25.6-25.6 25.6l-256 0c-12.8 0-25.6-12.8-25.6-25.6l0-256c0-12.8 12.8-25.6 25.6-25.6l256 0c12.8 0 25.6 12.8 25.6 25.6L832 857.6z" p-id="5610" fill="#2c2c2c"></path><path d="M1292.8 883.2 1228.8 819.2c25.6-25.6 38.4-64 38.4-115.2 0-102.4-76.8-179.2-179.2-179.2S921.6 614.4 921.6 704s76.8 179.2 179.2 179.2c38.4 0 76.8-12.8 115.2-38.4l64 64c0 0 12.8 0 12.8 0 0 0 12.8 0 12.8 0C1305.6 896 1305.6 883.2 1292.8 883.2zM1190.4 806.4C1164.8 832 1139.2 844.8 1100.8 844.8 1024 844.8 960 780.8 960 704 960 640 1024 576 1100.8 576S1228.8 640 1228.8 704C1228.8 742.4 1216 780.8 1190.4 806.4z" p-id="5611" fill="#2c2c2c"></path></svg>