<?xml version="1.0" standalone="no"?><!DOCTYPE svg PUBLIC "-//W3C//DTD SVG 1.1//EN" "http://www.w3.org/Graphics/SVG/1.1/DTD/svg11.dtd"><svg t="1553682660162" class="icon" style="" viewBox="0 0 1024 1024" version="1.1" xmlns="http://www.w3.org/2000/svg" p-id="8478" xmlns:xlink="http://www.w3.org/1999/xlink" width="200" height="200"><defs><style type="text/css"></style></defs><path d="M744.864 711.592H545.365L345.69 911.313V711.592h-66.562c-110.238 0-199.68-89.266-199.68-199.504v-199.68c0-110.279 89.441-199.721 199.68-199.721h465.736c110.419 0 199.685 89.442 199.685 199.721v199.68c-0.001 110.238-89.266 199.504-199.685 199.504z m-432.543-332.71c-18.288 0-33.193 14.993-33.193 33.369 0 18.329 14.905 33.146 33.193 33.146 18.546 0 33.369-14.817 33.369-33.146 0-18.376-14.823-33.369-33.369-33.369z m199.768 0c-18.375 0-33.456 14.993-33.456 33.369 0 18.329 15.081 33.146 33.456 33.146 18.278 0 33.276-14.817 33.276-33.146 0-18.376-14.998-33.369-33.276-33.369z m199.674 0c-18.37 0-33.368 14.993-33.368 33.369 0 18.329 14.998 33.146 33.368 33.146 18.288 0 33.101-14.817 33.101-33.146 0-18.376-14.813-33.369-33.101-33.369z" p-id="8479"></path></svg>